<svg width="22" height="25" viewBox="0 0 22 25" fill="black" xmlns="http://www.w3.org/2000/svg">
<path d="M14.3402 6.53375C14.3402 5.54025 13.948 4.58744 13.2499 3.88493C12.5517 3.18242 11.6048 2.78776 10.6175 2.78776C9.63016 2.78776 8.68326 3.18242 7.98512 3.88493C7.28697 4.58744 6.89476 5.54025 6.89476 6.53375C6.89476 7.52725 7.28697 8.48006 7.98512 9.18257C8.68326 9.88508 9.63016 10.2797 10.6175 10.2797C11.6048 10.2797 12.5517 9.88508 13.2499 9.18257C13.948 8.48006 14.3402 7.52725 14.3402 6.53375ZM4.66112 6.53375C4.66112 4.94415 5.28866 3.41966 6.4057 2.29564C7.52273 1.17163 9.03776 0.540161 10.6175 0.540161C12.1972 0.540161 13.7122 1.17163 14.8293 2.29564C15.9463 3.41966 16.5738 4.94415 16.5738 6.53375C16.5738 8.12335 15.9463 9.64784 14.8293 10.7719C13.7122 11.8959 12.1972 12.5273 10.6175 12.5273C9.03776 12.5273 7.52273 11.8959 6.4057 10.7719C5.28866 9.64784 4.66112 8.12335 4.66112 6.53375ZM2.48798 22.2669H18.747C18.3328 19.3029 15.8014 17.0225 12.7441 17.0225H8.49088C5.43359 17.0225 2.90213 19.3029 2.48798 22.2669ZM0.193848 23.1238C0.193848 18.5116 3.90727 14.7749 8.49088 14.7749H12.7441C17.3277 14.7749 21.0411 18.5116 21.0411 23.1238C21.0411 23.8918 20.4222 24.5145 19.6591 24.5145H1.57591C0.812751 24.5145 0.193848 23.8918 0.193848 23.1238Z" fill="#c58f63"/>
</svg>
